:FULLY-SPECIFIED
:FORCE-ALL-JOINTS-BE-3DOF
:DEGREES
146
root 8.62181 15.9554 -16.3569 6.50872 8.49971 3.4929
lfemur 25.5783 5.39086 -18.178
ltibia 3.64765 0 0
lfoot 5.30442 -1.33061 0
ltoes -15.4463 0 0
rfemur -41.217 2.08577 15.7361
rtibia 39.1066 0 0
rfoot -6.50541 -3.81376 0
rtoes -16.1838 0 0
lowerback -6.77032 -3.31122 -4.24567
upperback -1.20307 -4.16812 2.27303
thorax 3.01771 -2.1327 4.34018
lowerneck -19.4263 -5.92504 -13.8675
upperneck 17.4591 -6.9874 12.9211
head 9.70163 -2.82073 5.85196
lclavicle 1.57785e-15 1.43125e-14 0
lhumerus -35.3788 -2.02832 91.2788
lradius 19.0401 0 0
lwrist -10.4765 0 0
lhand -12.0388 -23.098 0
lfingers 7.12502 0 0
lthumb 14.0166 6.36582 0
rclavicle 1.57785e-15 1.43125e-14 0
rhumerus -48.1742 4.25933 -81.8189
rradius 29.0403 0 0
rwrist -15.5936 0 0
rhand -30.0481 -22.7875 0
rfingers 7.12502 0 0
rthumb -3.36385 -52.7389 0
147
root 8.59477 15.9931 -16.2025 6.57791 8.68217 3.10105
lfemur 23.7792 5.68493 -17.475
ltibia 7.2953 0 0
lfoot 5.75294 -0.982423 0
ltoes -14.5886 0 0
rfemur -40.6295 1.94237 16.4168
rtibia 39.0413 0 0
rfoot -6.95442 -3.48392 0
rtoes -15.8309 0 0
lowerback -6.65362 -3.32042 -3.85725
upperback -1.24667 -4.21278 2.37204
thorax 2.89142 -2.14886 4.22829
lowerneck -19.5635 -5.94215 -13.8017
upperneck 17.3842 -7.01816 12.9738
head 9.70513 -2.82013 5.85257
lclavicle 6.70898e-15 1.19271e-14 0
lhumerus -35.7962 -0.86219 90.5464
lradius 18.5692 0 0
lwrist -11.0386 0 0
lhand -10.236 -22.1879 0
lfingers 7.12502 0 0
lthumb 15.7513 7.12031 0
rclavicle 6.70898e-15 1.19271e-14 0
rhumerus -47.9546 4.19383 -81.6425
rradius 28.9265 0 0
rwrist -15.0797 0 0
rhand -29.6423 -22.7898 0
rfingers 7.12502 0 0
rthumb -2.97194 -52.7459 0
148
root 8.56772 16.0307 -16.048 6.64711 8.86463 2.7092
lfemur 21.9802 5.97899 -16.772
ltibia 10.9429 0 0
lfoot 6.20147 -0.634239 0
ltoes -13.7309 0 0
rfemur -40.0421 1.79896 17.0976
rtibia 38.976 0 0
rfoot -7.40343 -3.15407 0
rtoes -15.478 0 0
lowerback -6.53692 -3.32961 -3.46884
upperback -1.29027 -4.25745 2.47105
thorax 2.76514 -2.16502 4.11641
lowerneck -19.7007 -5.95927 -13.7359
upperneck 17.3092 -7.04892 13.0266
head 9.70862 -2.81954 5.85318
lclavicle 1.18401e-14 9.54166e-15 0
lhumerus -36.2136 0.30394 89.8139
lradius 18.0983 0 0
lwrist -11.6007 0 0
lhand -8.43313 -21.2779 0
lfingers 7.12502 0 0
lthumb 17.486 7.87481 0
rclavicle 1.18401e-14 9.54166e-15 0
rhumerus -47.7349 4.12833 -81.466
rradius 28.8128 0 0
rwrist -14.5658 0 0
rhand -29.2364 -22.7921 0
rfingers 7.12502 0 0
rthumb -2.58003 -52.753 0
149
root 8.54067 16.0684 -15.8936 6.71631 9.04708 2.31736
lfemur 20.1811 6.27306 -16.0689
ltibia 14.5906 0 0
lfoot 6.64999 -0.286055 0
ltoes -12.8731 0 0
rfemur -39.4546 1.65556 17.7784
rtibia 38.9107 0 0
rfoot -7.85243 -2.82422 0
rtoes -15.1252 0 0
lowerback -6.42021 -3.3388 -3.08043
upperback -1.33388 -4.30212 2.57007
thorax 2.63886 -2.18119 4.00453
lowerneck -19.838 -5.97639 -13.6701
upperneck 17.2343 -7.07968 13.0794
head 9.71211 -2.81895 5.85379
lclavicle 1.69712e-14 7.15625e-15 0
lhumerus -36.631 1.47007 89.0814
lradius 17.6273 0 0
lwrist -12.1629 0 0
lhand -6.6303 -20.3678 0
lfingers 7.12502 0 0
lthumb 19.2208 8.62931 0
rclavicle 1.69712e-14 7.15625e-15 0
rhumerus -47.5152 4.06282 -81.2895
rradius 28.699 0 0
rwrist -14.052 0 0
rhand -28.8306 -22.7945 0
rfingers 7.12502 0 0
rthumb -2.18811 -52.7601 0
150
root 8.51363 16.106 -15.7392 6.7855 9.22954 1.92551
lfemur 18.382 6.56712 -15.3659
ltibia 18.2382 0 0
lfoot 7.09851 0.0621283 0
ltoes -12.0153 0 0
rfemur -38.8671 1.51216 18.4591
rtibia 38.8454 0 0
rfoot -8.30144 -2.49438 0
rtoes -14.7723 0 0
lowerback -6.3035 -3.348 -2.69201
upperback -1.37748 -4.34678 2.66908
thorax 2.51257 -2.19735 3.89264
lowerneck -19.9752 -5.9935 -13.6043
upperneck 17.1594 -7.11044 13.1321
head 9.71561 -2.81835 5.8544
lclavicle 2.21024e-14 4.77083e-15 0
lhumerus -37.0484 2.6362 88.349
lradius 17.1564 0 0
lwrist -12.725 0 0
lhand -4.82747 -19.4577 0
lfingers 7.12502 0 0
lthumb 20.9556 9.3838 0
rclavicle 2.21024e-14 4.77083e-15 0
rhumerus -47.2956 3.99732 -81.1131
rradius 28.5852 0 0
rwrist -13.5381 0 0
rhand -28.4248 -22.7968 0
rfingers 7.12502 0 0
rthumb -1.7962 -52.7671 0
151
root 8.48658 16.1437 -15.5848 6.8547 9.412 1.53366
lfemur 16.583 6.86119 -14.6629
ltibia 21.8859 0 0
lfoot 7.54703 0.410312 0
ltoes -11.1576 0 0
rfemur -38.2796 1.36876 19.1399
rtibia 38.7801 0 0
rfoot -8.75045 -2.16453 0
rtoes -14.4194 0 0
lowerback -6.1868 -3.35719 -2.3036
upperback -1.42108 -4.39145 2.7681
thorax 2.38629 -2.21351 3.78076
lowerneck -20.1124 -6.01062 -13.5385
upperneck 17.0845 -7.1412 13.1849
head 9.7191 -2.81776 5.85501
lclavicle 2.72335e-14 2.38542e-15 0
lhumerus -37.4658 3.80233 87.6165
lradius 16.6855 0 0
lwrist -13.2871 0 0
lhand -3.02465 -18.5477 0
lfingers 7.12502 0 0
lthumb 22.6903 10.1383 0
rclavicle 2.72335e-14 2.38542e-15 0
rhumerus -47.0759 3.93182 -80.9366
rradius 28.4715 0 0
rwrist -13.0243 0 0
rhand -28.019 -22.7991 0
rfingers 7.12502 0 0
rthumb -1.40429 -52.7742 0
152
root 8.46073 16.1861 -15.4508 6.96216 9.48795 1.24305
lfemur 14.5783 7.02344 -14.3835
ltibia 25.1641 0 0
lfoot 7.56441 1.53077 0
ltoes -12.6204 0 0
rfemur -37.5525 1.40227 19.625
rtibia 38.1996 0 0
rfoot -9.09003 -1.97007 0
rtoes -14.0445 0 0
lowerback -6.06047 -3.25844 -2.08585
upperback -1.46989 -4.27407 2.87573
thorax 2.24904 -2.15187 3.78822
lowerneck -20.0725 -6.12409 -13.6909
upperneck 16.9272 -7.27921 13.3405
head 9.69288 -2.87735 5.91205
lclavicle 2.12741e-14 -5.30083e-16 0
lhumerus -37.921 2.51528 88.288
lradius 17.0911 0 0
lwrist -12.2635 0 0
lhand -3.03191 -18.5801 0
lfingers 7.12502 0 0
lthumb 22.6833 10.1067 0
rclavicle 2.12741e-14 -5.30083e-16 0
rhumerus -46.9509 4.26611 -81.0102
rradius 28.8253 0 0
rwrist -13.727 0 0
rhand -28.2792 -23.3299 0
rfingers 7.12502 0 0
rthumb -1.65561 -53.3024 0
153
root 8.43488 16.2285 -15.3169 7.06963 9.5639 0.952444
lfemur 12.5736 7.18568 -14.1041
ltibia 28.4422 0 0
lfoot 7.5818 2.65122 0
ltoes -14.0833 0 0
rfemur -36.8254 1.43579 20.1101
rtibia 37.6192 0 0
rfoot -9.4296 -1.77562 0
rtoes -13.6696 0 0
lowerback -5.93415 -3.15969 -1.8681
upperback -1.5187 -4.15668 2.98335
thorax 2.1118 -2.09023 3.79567
lowerneck -20.0325 -6.23755 -13.8433
upperneck 16.7699 -7.41722 13.4961
head 9.66667 -2.93694 5.9691
lclavicle 1.53147e-14 -3.44559e-15 0
lhumerus -38.3763 1.22824 88.9595
lradius 17.4967 0 0
lwrist -11.2399 0 0
lhand -3.03917 -18.6126 0
lfingers 7.12502 0 0
lthumb 22.6764 10.0751 0
rclavicle 1.53147e-14 -3.44559e-15 0
rhumerus -46.8258 4.6004 -81.0837
rradius 29.179 0 0
rwrist -14.4297 0 0
rhand -28.5395 -23.8606 0
rfingers 7.12502 0 0
rthumb -1.90694 -53.8306 0
